Patient4_TMGait_0pt5_01_left_36_GRF.mot
version=1
nRows=26
nColumns=19
inDegrees=no
endheader
time	F1x	F1y	F1z	M1x	M1y	M1z	F2x	F2y	F2z	M2x	M2y	M2z	EC1x	EC1y	EC1z	EC2x	EC2y	EC2z
47.95	-21.9123	-4.4274	-2.0686	-0.55218	-1.5266	-2.3113	-46.8506	804.0424	-85.2293	304.1374	91.8598	697.4785	-0.0592	0.0182	-0.0073	-0.0462	0.0165	0.9585
47.9633	-14.9427	-2.5886	-1.4721	-0.47466	-1.1048	-1.2293	-43.1868	786.6013	-79.0877	295.6829	83.9428	680.1906	-0.0592	0.0182	-0.0073	-0.0462	0.0165	0.9585
47.9766	-9.0524	-1.0072	-0.92048	-0.43712	-0.77016	-0.24279	-38.9549	767.7502	-73.3028	286.8331	76.2211	661.2093	-0.0592	0.0182	-0.0073	-0.0462	0.0165	0.9585
47.9899	-4.5756	0.22798	-0.46619	-0.4305	-0.5318	0.5652	-34.4115	749.2966	-68.2437	278.3869	69.1808	642.1733	-0.0592	0.0182	-0.0073	-0.0462	0.0165	0.9585
48.0031	-1.4829	1.1153	-0.13203	-0.44524	-0.37383	1.1732	-29.8186	733.0624	-64.0554	271.0654	63.0654	624.7408	-0.0592	0.0182	-0.0073	-0.0462	0.0165	0.9585
48.0164	0.40927	1.7061	0.092335	-0.47449	-0.28967	1.6078	-25.3933	720.5808	-60.7721	265.425	57.9737	610.2945	-0.0592	0.0182	-0.0073	-0.0462	0.0165	0.9585
48.0297	1.3818	2.054	0.22869	-0.50959	-0.26425	1.8763	-21.2935	712.8704	-58.369	261.8024	53.9135	599.7304	-0.0592	0.0182	-0.0073	-0.0462	0.0165	0.9585
48.043	1.6925	2.2241	0.30433	-0.54433	-0.29043	2.0256	-17.5989	710.3286	-56.7837	260.2938	50.8212	593.3919	-0.0592	0.0182	-0.0073	-0.0462	0.0165	0.9585
48.0563	1.5867	2.2507	0.34305	-0.5672	-0.35592	2.0672	-14.3031	712.7432	-55.9143	260.7748	48.5701	591.082	-0.0592	0.0182	-0.0073	-0.0462	0.0165	0.9585
48.0696	1.2414	2.1421	0.3617	-0.5614	-0.45132	1.994	-11.3445	719.3918	-55.6292	262.944	46.9934	592.1678	-0.0592	0.0182	-0.0073	-0.0462	0.0165	0.9585
48.0829	0.78306	1.878	0.37325	-0.50442	-0.56987	1.7719	-8.6215	729.1548	-55.7845	266.3657	45.9081	595.6893	-0.0592	0.0182	-0.0073	-0.0462	0.0165	0.9585
48.0961	0.3129	1.4027	0.37718	-0.36765	-0.68859	1.3311	-6.0415	740.6421	-56.2274	270.5141	45.1326	600.4929	-0.0592	0.0182	-0.0073	-0.0462	0.0165	0.9585
48.1094	-0.11462	0.65165	0.37565	-0.12166	-0.79164	0.61295	-3.5232	752.2956	-56.8147	274.809	44.5063	605.3161	-0.0592	0.0182	-0.0073	-0.0462	0.0165	0.9585
48.1227	-0.43145	-0.44554	0.36016	0.2595	-0.84786	-0.45885	-1.0282	762.5311	-57.4162	278.6639	43.903	608.9217	-0.0592	0.0182	-0.0073	-0.0462	0.0165	0.9585
48.136	-0.57759	-1.9126	0.32866	0.78647	-0.83158	-1.9042	1.435	769.9127	-57.922	281.5488	43.2395	610.2223	-0.0592	0.0182	-0.0073	-0.0462	0.0165	0.9585
48.1493	-0.45228	-3.6945	0.26046	1.4387	-0.68834	-3.6864	3.8485	773.3594	-58.2434	283.0646	42.4596	608.4206	-0.0592	0.0182	-0.0073	-0.0462	0.0165	0.9585
48.1626	0.054988	-5.6114	0.15415	2.1428	-0.37442	-5.6241	6.188	772.2878	-58.3368	282.9907	41.5409	603.1262	-0.0592	0.0182	-0.0073	-0.0462	0.0165	0.9585
48.1759	1.071	-7.2847	-0.0040131	2.753	0.16966	-7.3332	8.4557	766.6591	-58.2221	281.3034	40.4946	594.3518	-0.0592	0.0182	-0.0073	-0.0462	0.0165	0.9585
48.1891	2.736	-8.0751	-0.20623	3.0322	0.99021	-8.1932	10.6778	757.0349	-57.9701	278.1924	39.3575	582.5682	-0.0592	0.0182	-0.0073	-0.0462	0.0165	0.9585
48.2024	5.1435	-7.0206	-0.44895	2.6263	2.1237	-7.2661	12.9114	744.4734	-57.6828	274.0256	38.1736	568.6236	-0.0592	0.0182	-0.0073	-0.0462	0.0165	0.9585
48.2157	8.2941	-2.8354	-0.70192	1.0617	3.5424	-3.3132	15.2096	730.2917	-57.4566	269.2719	36.9837	553.561	-0.0592	0.0182	-0.0073	-0.0462	0.0165	0.9585
48.229	11.9875	6.0648	-0.91561	-2.2434	5.1231	5.2094	17.5881	715.7886	-57.3294	264.4002	35.8024	538.3996	-0.0592	0.0182	-0.0073	-0.0462	0.0165	0.9585
48.2423	15.7246	21.3873	-0.99973	-7.9152	6.5898	19.9908	20.0161	701.9384	-57.2843	259.7618	34.6314	523.9255	-0.0592	0.0182	-0.0073	-0.0462	0.0165	0.9585
48.2556	18.5818	44.6497	-0.82501	-16.507	7.4744	42.5527	22.392	689.1543	-57.2365	255.4973	33.4537	510.5431	-0.0592	0.0182	-0.0073	-0.0462	0.0165	0.9585
48.2689	19.2167	76.781	-0.24924	-28.3521	7.1435	73.862	24.5677	677.1811	-57.0689	251.4982	32.2558	498.1734	-0.0592	0.0182	-0.0073	-0.0462	0.0165	0.9585
48.2821	16.4048	117.8682	0.90834	-43.472	4.975	114.0622	26.3674	665.1824	-56.6156	247.4403	31.0006	486.3203	-0.0592	0.0182	-0.0073	-0.0462	0.0165	0.9585
